<svg width="32" height="32" viewBox="0 0 32 32" fill="none" xmlns="http://www.w3.org/2000/svg">
<path opacity="0.4" d="M10.2 27.88C10.16 27.88 10.1067 27.9067 10.0667 27.9067C7.48 26.6267 5.37334 24.5067 4.08 21.92C4.08 21.88 4.10667 21.8267 4.10667 21.7867C5.73334 22.2667 7.41334 22.6267 9.08 22.9067C9.37334 24.5867 9.72 26.2533 10.2 27.88Z" fill="black"/>
<path opacity="0.4" d="M27.92 21.9333C26.6 24.5867 24.4 26.7333 21.72 28.0267C22.2267 26.3333 22.6533 24.6267 22.9333 22.9067C24.6133 22.6267 26.2667 22.2667 27.8933 21.7867C27.88 21.84 27.92 21.8933 27.92 21.9333Z" fill="black"/>
<path opacity="0.4" d="M28.0267 10.28C26.3467 9.77333 24.6533 9.35999 22.9333 9.06666C22.6533 7.34666 22.24 5.63999 21.72 3.97333C24.48 5.29333 26.7067 7.51999 28.0267 10.28Z" fill="black"/>
<path opacity="0.4" d="M10.2 4.12002C9.71999 5.74668 9.37333 7.40002 9.09333 9.08002C7.37333 9.34668 5.66666 9.77335 3.97333 10.28C5.26666 7.60002 7.41333 5.40002 10.0667 4.08002C10.1067 4.08002 10.16 4.12002 10.2 4.12002Z" fill="black"/>
<path d="M20.6533 8.78669C17.56 8.44002 14.44 8.44002 11.3467 8.78669C11.68 6.96002 12.1067 5.13335 12.7067 3.37335C12.7333 3.26669 12.72 3.18669 12.7333 3.08002C13.7867 2.82669 14.8667 2.66669 16 2.66669C17.12 2.66669 18.2133 2.82669 19.2533 3.08002C19.2667 3.18669 19.2667 3.26669 19.2933 3.37335C19.8933 5.14669 20.32 6.96002 20.6533 8.78669Z" fill="black"/>
<path d="M8.78667 20.6533C6.94667 20.32 5.13334 19.8933 3.37334 19.2933C3.26667 19.2667 3.18667 19.28 3.08001 19.2667C2.82667 18.2133 2.66667 17.1333 2.66667 16C2.66667 14.88 2.82667 13.7867 3.08001 12.7467C3.18667 12.7333 3.26667 12.7333 3.37334 12.7067C5.14667 12.12 6.94667 11.68 8.78667 11.3467C8.45334 14.44 8.45334 17.56 8.78667 20.6533Z" fill="black"/>
<path d="M29.3333 16C29.3333 17.1333 29.1733 18.2133 28.92 19.2667C28.8133 19.28 28.7333 19.2667 28.6267 19.2933C26.8533 19.88 25.04 20.32 23.2133 20.6533C23.56 17.56 23.56 14.44 23.2133 11.3467C25.04 11.68 26.8667 12.1067 28.6267 12.7067C28.7333 12.7333 28.8133 12.7467 28.92 12.7467C29.1733 13.8 29.3333 14.88 29.3333 16Z" fill="black"/>
<path d="M20.6533 23.2133C20.32 25.0533 19.8933 26.8667 19.2933 28.6267C19.2667 28.7333 19.2667 28.8133 19.2533 28.92C18.2133 29.1733 17.12 29.3333 16 29.3333C14.8667 29.3333 13.7867 29.1733 12.7333 28.92C12.72 28.8133 12.7333 28.7333 12.7067 28.6267C12.12 26.8533 11.68 25.0533 11.3467 23.2133C12.8933 23.3867 14.44 23.5067 16 23.5067C17.56 23.5067 19.12 23.3867 20.6533 23.2133Z" fill="black"/>
<path d="M21.0178 21.0178C17.683 21.4385 14.317 21.4385 10.9822 21.0178C10.5615 17.683 10.5615 14.317 10.9822 10.9822C14.317 10.5615 17.683 10.5615 21.0178 10.9822C21.4385 14.317 21.4385 17.683 21.0178 21.0178Z" fill="black"/>
</svg>
