<svg width="32" height="32" viewBox="0 0 32 32" fill="none" xmlns="http://www.w3.org/2000/svg">
<path d="M30.3333 29.3333C30.3333 29.88 29.88 30.3333 29.3333 30.3333H2.66667C2.12001 30.3333 1.66667 29.88 1.66667 29.3333C1.66667 28.7733 2.12001 28.3333 2.66667 28.3333H29.3333C29.88 28.3333 30.3333 28.7733 30.3333 29.3333Z" fill="black"/>
<path opacity="0.4" d="M28 13.3067V28.3333H3.93333L4.00001 13.2933C4.00001 12.48 4.37333 11.7067 5.02667 11.2L14.36 3.94671C15.32 3.18671 16.68 3.18671 17.64 3.94671L26.9733 11.2C27.6267 11.7067 28 12.48 28 13.3067Z" fill="black"/>
<path d="M18 11H14C13.4533 11 13 10.5467 13 10C13 9.45333 13.4533 9 14 9H18C18.5467 9 19 9.45333 19 10C19 10.5467 18.5467 11 18 11Z" fill="black"/>
<path d="M20.6667 14.6667H11.3333C10.2267 14.6667 9.33333 15.56 9.33333 16.6667V29.3334H22.6667V16.6667C22.6667 15.56 21.7733 14.6667 20.6667 14.6667ZM14.3333 23.6667C14.3333 24.2134 13.88 24.6667 13.3333 24.6667C12.7867 24.6667 12.3333 24.2134 12.3333 23.6667V21.6667C12.3333 21.12 12.7867 20.6667 13.3333 20.6667C13.88 20.6667 14.3333 21.12 14.3333 21.6667V23.6667Z" fill="black"/>
</svg>
