<svg width="32" height="32" viewBox="0 0 32 32" fill="none" xmlns="http://www.w3.org/2000/svg">
<path opacity="0.4" d="M12 2.66669C8.50667 2.66669 5.66667 5.50669 5.66667 9.00002C5.66667 12.4267 8.34667 15.2 11.84 15.32C11.9467 15.3067 12.0533 15.3067 12.1333 15.32C12.16 15.32 12.1733 15.32 12.2 15.32C12.2133 15.32 12.2133 15.32 12.2267 15.32C15.64 15.2 18.32 12.4267 18.3333 9.00002C18.3333 5.50669 15.4933 2.66669 12 2.66669Z" fill="black"/>
<path d="M18.7733 18.8667C15.0533 16.3867 8.98667 16.3867 5.24 18.8667C3.54667 20 2.61333 21.5333 2.61333 23.1733C2.61333 24.8133 3.54667 26.3333 5.22667 27.4533C7.09333 28.7067 9.54667 29.3333 12 29.3333C14.4533 29.3333 16.9067 28.7067 18.7733 27.4533C20.4533 26.32 21.3867 24.8 21.3867 23.1467C21.3733 21.5067 20.4533 19.9867 18.7733 18.8667Z" fill="black"/>
<path opacity="0.4" d="M26.6533 9.78664C26.8667 12.3733 25.0267 14.64 22.48 14.9466C22.4667 14.9466 22.4667 14.9466 22.4533 14.9466H22.4133C22.3333 14.9466 22.2533 14.9466 22.1867 14.9733C20.8933 15.04 19.7067 14.6266 18.8133 13.8666C20.1867 12.64 20.9733 10.8 20.8133 8.79997C20.72 7.71997 20.3467 6.7333 19.7867 5.8933C20.2933 5.63997 20.88 5.47997 21.48 5.42664C24.0933 5.19997 26.4267 7.14664 26.6533 9.78664Z" fill="black"/>
<path d="M29.32 22.12C29.2133 23.4133 28.3867 24.5333 27 25.2933C25.6667 26.0267 23.9867 26.3733 22.32 26.3333C23.28 25.4667 23.84 24.3867 23.9467 23.24C24.08 21.5867 23.2933 20 21.72 18.7333C20.8267 18.0267 19.7867 17.4667 18.6533 17.0533C21.6 16.2 25.3067 16.7733 27.5867 18.6133C28.8133 19.6 29.44 20.84 29.32 22.12Z" fill="black"/>
</svg>
