<svg width="32" height="32" viewBox="0 0 32 32" fill="none" xmlns="http://www.w3.org/2000/svg">
<path opacity="0.4" d="M13.9867 2.97333L7.33333 5.46668C5.8 6.04001 4.54667 7.85333 4.54667 9.49333V19.4C4.54667 20.9733 5.58669 23.04 6.85335 23.9867L12.5867 28.2667C14.4667 29.68 17.56 29.68 19.44 28.2667L25.1733 23.9867C26.44 23.04 27.48 20.9733 27.48 19.4V9.49333C27.48 7.85333 26.2267 6.04001 24.6933 5.46668L18.04 2.97333C16.9067 2.56 15.0933 2.56 13.9867 2.97333Z" fill="black"/>
<path d="M15.8667 15.0667C15.8933 15.0667 15.92 15.0667 15.9467 15.0667H15.9733H16C17.5333 15.0134 18.7333 13.7734 18.7467 12.2267C18.7467 10.6534 17.4667 9.37335 15.8934 9.37335C14.32 9.37335 13.04 10.6534 13.04 12.2267C13.0667 13.76 14.2667 15.0134 15.8667 15.0667Z" fill="black"/>
<path d="M18.92 17.88C17.3067 16.8134 14.6933 16.8134 13.0667 17.88C12.32 18.3867 11.88 19.1067 11.88 19.8533C11.88 20.6133 12.3067 21.3067 13.0667 21.8133C13.88 22.3467 14.9333 22.6267 15.9867 22.6267C17.04 22.6267 18.1067 22.36 18.9067 21.8133C19.6533 21.3067 20.0933 20.5867 20.0933 19.84C20.1067 19.08 19.68 18.3867 18.92 17.88Z" fill="black"/>
</svg>
